<mxfile host="app.diagrams.net" modified="2024-02-23T12:15:05.700Z" agent="Mozilla/5.0 (Windows NT 10.0; Win64; x64) AppleWebKit/537.36 (KHTML, like Gecko) Chrome/121.0.0.0 Safari/537.36" version="23.1.6" etag="Egtd2l-zkVkruRa-uaqb" type="github">
  <diagram name="Страница — 1" id="MnRJ8sU86wwQx1pG-61X">
    <mxGraphModel>
      <root>
        <mxCell id="0" />
        <mxCell id="1" parent="0" />
      </root>
    </mxGraphModel>
  </diagram>
</mxfile>
